<svg xmlns="http://www.w3.org/2000/svg">
    <defs>
        <symbol id="left" fill="none">
            <path d="M14 2V4H3V6L0 3L3 0V2H14Z" fill="#292929"/>
        </symbol>
        <symbol id="home" fill="currentColor" class="bi bi-house-door">
            <path d="M8.354 1.146a.5.5 0 0 0-.708 0l-6 6A.5.5 0 0 0 1.5 7.5v7a.5.5 0 0 0 .5.5h4.5a.5.5 0 0 0 .5-.5v-4h2v4a.5.5 0 0 0 .5.5H14a.5.5 0 0 0 .5-.5v-7a.5.5 0 0 0-.146-.354L13 5.793V2.5a.5.5 0 0 0-.5-.5h-1a.5.5 0 0 0-.5.5v1.293zM2.5 14V7.707l5.5-5.5 5.5 5.5V14H10v-4a.5.5 0 0 0-.5-.5h-3a.5.5 0 0 0-.5.5v4z"></path>
        </symbol>
        <symbol id="phone" fill="currentColor" class="bi bi-telephone-inbound">
            <path d="M15.854.146a.5.5 0 0 1 0 .708L11.707 5H14.5a.5.5 0 0 1 0 1h-4a.5.5 0 0 1-.5-.5v-4a.5.5 0 0 1 1 0v2.793L15.146.146a.5.5 0 0 1 .708 0m-12.2 1.182a.678.678 0 0 0-1.015-.063L1.605 2.3c-.483.484-.661 1.169-.45 1.77a17.6 17.6 0 0 0 4.168 6.608 17.6 17.6 0 0 0 6.608 4.168c.601.211 1.286.033 1.77-.45l1.034-1.034a.678.678 0 0 0-.063-1.015l-2.307-1.794a.68.68 0 0 0-.58-.122l-2.19.547a1.75 1.75 0 0 1-1.657-.459L5.482 8.062a1.75 1.75 0 0 1-.46-1.657l.548-2.19a.68.68 0 0 0-.122-.58zM1.884.511a1.745 1.745 0 0 1 2.612.163L6.29 2.98c.329.423.445.974.315 1.494l-.547 2.19a.68.68 0 0 0 .178.643l2.457 2.457a.68.68 0 0 0 .644.178l2.189-.547a1.75 1.75 0 0 1 1.494.315l2.306 1.794c.829.645.905 1.87.163 2.611l-1.034 1.034c-.74.74-1.846 1.065-2.877.702a18.6 18.6 0 0 1-7.01-4.42 18.6 18.6 0 0 1-4.42-7.009c-.362-1.03-.037-2.137.703-2.877z"></path>
        </symbol>
        <symbol id="mail" fill="currentColor" class="bi bi-envelope">
            <path d="M0 4a2 2 0 0 1 2-2h12a2 2 0 0 1 2 2v8a2 2 0 0 1-2 2H2a2 2 0 0 1-2-2zm2-1a1 1 0 0 0-1 1v.217l7 4.2 7-4.2V4a1 1 0 0 0-1-1zm13 2.383-4.708 2.825L15 11.105zm-.034 6.876-5.64-3.471L8 9.583l-1.326-.795-5.64 3.47A1 1 0 0 0 2 13h12a1 1 0 0 0 .966-.741M1 11.105l4.708-2.897L1 5.383z"></path>
        </symbol>
        <symbol id="gitHub" fill="currentColor" class="bi bi-github">
            <path d="M8 0C3.58 0 0 3.58 0 8c0 3.54 2.29 6.53 5.47 7.59.4.07.55-.17.55-.38 0-.19-.01-.82-.01-1.49-2.01.37-2.53-.49-2.69-.94-.09-.23-.48-.94-.82-1.13-.28-.15-.68-.52-.01-.53.63-.01 1.08.58 1.23.82.72 1.21 1.87.87 2.33.66.07-.52.28-.87.51-1.07-1.78-.2-3.64-.89-3.64-3.95 0-.87.31-1.59.82-2.15-.08-.2-.36-1.02.08-2.12 0 0 .67-.21 2.2.82.64-.18 1.32-.27 2-.27s1.36.09 2 .27c1.53-1.04 2.2-.82 2.2-.82.44 1.1.16 1.92.08 2.12.51.56.82 1.27.82 2.15 0 3.07-1.87 3.75-3.65 3.95.29.25.54.73.54 1.48 0 1.07-.01 1.93-.01 2.2 0 .21.15.46.55.38A8.01 8.01 0 0 0 16 8c0-4.42-3.58-8-8-8"></path>
        </symbol>
        <symbol id="telegram" fill="currentColor" class="bi bi-telegram">
            <path d="M16 8A8 8 0 1 1 0 8a8 8 0 0 1 16 0M8.287 5.906q-1.168.486-4.666 2.01-.567.225-.595.442c-.03.243.275.339.69.47l.175.055c.408.133.958.288 1.243.294q.39.01.868-.32 3.269-2.206 3.374-2.23c.05-.012.12-.026.166.016s.042.12.037.141c-.03.129-1.227 1.241-1.846 1.817-.193.18-.33.307-.358.336a8 8 0 0 1-.188.186c-.38.366-.664.64.015 1.088.327.216.589.393.85.571.284.194.568.387.936.629q.14.092.27.187c.331.236.63.448.997.414.214-.02.435-.22.547-.82.265-1.417.786-4.486.906-5.751a1.4 1.4 0 0 0-.013-.315.34.34 0 0 0-.114-.217.53.53 0 0 0-.31-.093c-.3.005-.763.166-2.984 1.09"></path>
        </symbol>
        <symbol id="arrow" xmlns:xlink="http://www.w3.org/1999/xlink" version="1.1" xml:space="preserve">
            <g style="stroke: none; stroke-width: 0; stroke-dasharray: none; stroke-linecap: butt; stroke-linejoin: miter; stroke-miterlimit: 10; fill: none; fill-rule: nonzero; opacity: 1;"
                transform="translate(1.4065934065934016 1.4065934065934016) scale(2.81 2.81)">
            <path d="M 58.33 58.799 L 15.998 16.466 c -1.059 -1.059 -1.059 -2.776 0 -3.835 L 27.834 0.794 c 1.059 -1.059 2.776 -1.059 3.835 0 l 42.333 42.333 c 1.059 1.059 1.059 2.776 0 3.835 L 62.166 58.799 C 61.107 59.858 59.39 59.858 58.33 58.799 z"
                style="stroke: none; stroke-width: 1; stroke-dasharray: none; stroke-linecap: butt; stroke-linejoin: miter; stroke-miterlimit: 10; fill: #B39E9F; fill-rule: nonzero; opacity: 1;"
                transform=" matrix(1 0 0 1 0 0) " stroke-linecap="round"></path>
            <path d="M 58.33 31.201 L 15.998 73.534 c -1.059 1.059 -1.059 2.776 0 3.835 l 11.837 11.837 c 1.059 1.059 2.776 1.059 3.835 0 l 42.333 -42.333 c 1.059 -1.059 1.059 -2.776 0 -3.835 L 62.166 31.201 C 61.107 30.142 59.39 30.142 58.33 31.201 z"
                style="stroke: none; stroke-width: 1; stroke-dasharray: none; stroke-linecap: butt; stroke-linejoin: miter; stroke-miterlimit: 10; fill: #B39E9F; fill-rule: nonzero; opacity: 1;"
                transform=" matrix(1 0 0 1 0 0) " stroke-linecap="round"></path>
            </g>
        </symbol>
        <symbol id="gitHubBig">
            <path fill-rule="evenodd" clip-rule="evenodd" d="M48.854 0C21.839 0 0 22 0 49.217c0 21.756 13.993 40.172 33.405 46.69 2.427.49 3.316-1.059 3.316-2.362 0-1.141-.08-5.052-.08-9.127-13.59 2.934-16.42-5.867-16.42-5.867-2.184-5.704-5.42-7.17-5.42-7.17-4.448-3.015.324-3.015.324-3.015 4.934.326 7.523 5.052 7.523 5.052 4.367 7.496 11.404 5.378 14.235 4.074.404-3.178 1.699-5.378 3.074-6.6-10.839-1.141-22.243-5.378-22.243-24.283 0-5.378 1.94-9.778 5.014-13.2-.485-1.222-2.184-6.275.486-13.038 0 0 4.125-1.304 13.426 5.052a46.97 46.97 0 0 1 12.214-1.63c4.125 0 8.33.571 12.213 1.63 9.302-6.356 13.427-5.052 13.427-5.052 2.67 6.763.97 11.816.485 13.038 3.155 3.422 5.015 7.822 5.015 13.2 0 18.905-11.404 23.06-22.324 24.283 1.78 1.548 3.316 4.481 3.316 9.126 0 6.6-.08 11.897-.08 13.526 0 1.304.89 2.853 3.316 2.364 19.412-6.52 33.405-24.935 33.405-46.691C97.707 22 75.788 0 48.854 0z" fill="#24292f"></path>
        </symbol>
    </defs>
</svg>

